<?xml version="1.0" standalone="no"?>
<!DOCTYPE svg PUBLIC "-//W3C//DTD SVG 20010904//EN"
 "http://www.w3.org/TR/2001/REC-SVG-20010904/DTD/svg10.dtd">
<svg version="1.0" xmlns="http://www.w3.org/2000/svg"
 width="600.000000pt" height="600.000000pt" viewBox="0 0 600.000000 600.000000"
 preserveAspectRatio="xMidYMid meet">
<g transform="translate(0.000000,600.000000) scale(0.100000,-0.100000)"
fill="currentColor" stroke="none">
<path d="M3817 4850 l-118 -69 -126 60 c-69 32 -127 58 -128 57 -1 -2 11 -63
27 -136 l29 -134 -90 -93 c-50 -52 -91 -98 -91 -103 0 -5 48 -14 107 -21 173
-20 155 -9 225 -137 33 -63 64 -114 68 -114 4 0 31 53 60 118 29 64 57 120 62
123 4 3 67 16 138 29 72 13 130 26 129 29 0 3 -26 28 -57 55 -31 27 -77 67
-101 89 l-43 39 17 135 c9 74 15 136 13 138 -2 2 -56 -28 -121 -65z m-120
-197 c7 -3 28 4 46 16 19 12 37 21 41 21 3 0 6 -21 6 -47 0 -41 5 -52 36 -84
l36 -37 -51 -7 c-48 -6 -51 -9 -67 -51 -9 -24 -20 -44 -24 -44 -4 0 -15 16
-26 36 -21 39 -47 54 -97 54 l-31 0 37 38 37 38 -15 43 c-21 61 -20 63 23 45
20 -9 43 -18 49 -21z"/>
<path d="M4248 4150 c-75 -23 -128 -95 -128 -175 0 -164 207 -237 317 -112
117 133 -19 338 -189 287z m97 -125 c14 -13 25 -30 25 -38 0 -26 -41 -67 -66
-67 -28 0 -74 41 -74 65 0 23 45 65 70 65 12 0 32 -11 45 -25z"/>
<path d="M1362 3899 l-59 -126 -137 -18 c-75 -10 -136 -22 -136 -26 0 -4 43
-47 95 -96 59 -55 95 -96 95 -108 0 -11 -11 -73 -25 -138 -14 -64 -25 -120
-25 -123 0 -3 56 24 124 60 l124 66 121 -65 c66 -36 122 -65 124 -65 2 0 -7
62 -20 138 l-23 137 100 98 c58 56 95 99 88 102 -7 2 -69 12 -136 21 l-124 18
-63 125 -63 126 -60 -126z m89 -207 c13 -24 26 -31 63 -36 25 -4 46 -11 46
-15 0 -4 -15 -22 -34 -40 -32 -31 -33 -34 -25 -78 5 -26 7 -48 5 -50 -2 -2
-23 8 -47 21 l-44 25 -43 -25 c-24 -14 -45 -24 -48 -22 -2 3 0 25 5 51 8 44 7
47 -25 78 -19 18 -34 36 -34 40 0 4 23 10 51 14 47 7 52 10 72 52 23 47 24 47
58 -15z"/>
<path d="M2326 3967 c-132 -75 -78 -277 73 -277 116 0 187 118 132 220 -22 42
-84 80 -131 80 -19 0 -53 -10 -74 -23z m98 -103 c22 -21 3 -56 -27 -52 -37 5
-33 67 5 68 4 0 14 -7 22 -16z"/>
<path d="M3536 3610 c-41 -13 -85 -58 -98 -101 -32 -108 65 -212 176 -187 135
30 159 212 36 276 -47 23 -67 26 -114 12z m75 -131 c9 -17 8 -25 -4 -37 -27
-26 -67 6 -53 43 8 22 44 18 57 -6z"/>
<path d="M1967 3308 c-4 -18 -9 -71 -13 -118 -4 -47 -10 -95 -15 -106 -4 -13
-51 -45 -118 -83 -61 -34 -111 -65 -111 -69 0 -5 53 -30 118 -56 64 -27 120
-52 124 -55 4 -3 18 -64 32 -135 14 -71 27 -130 29 -132 2 -2 43 41 91 96 100
114 85 109 261 86 55 -8 102 -12 104 -11 1 2 -27 54 -65 116 -37 62 -67 118
-67 125 0 6 23 64 52 129 29 64 51 118 50 120 -2 2 -58 -10 -124 -25 -66 -16
-125 -29 -132 -30 -7 0 -55 41 -106 90 -52 50 -97 90 -100 90 -2 0 -7 -15 -10
-32z m224 -263 c48 7 51 6 44 -11 -30 -73 -30 -72 -7 -120 l23 -47 -50 6 c-49
6 -51 5 -85 -34 -37 -44 -36 -44 -51 29 -6 28 -15 37 -51 52 -24 11 -44 21
-44 24 0 2 20 16 45 30 36 21 45 32 45 54 0 15 3 37 6 50 l7 23 32 -31 c31
-30 36 -32 86 -25z"/>
<path d="M3615 3046 c-484 -204 -859 -487 -991 -747 l-24 -49 -38 16 c-371
155 -765 251 -1167 285 -160 13 -515 6 -639 -14 -67 -10 -82 -16 -99 -39 -17
-23 -19 -33 -11 -55 8 -24 30 -37 147 -87 75 -33 134 -62 132 -65 -3 -2 -42
-15 -88 -29 -109 -31 -243 -102 -240 -127 10 -108 12 -202 6 -211 -4 -7 -45
-17 -91 -22 -54 -7 -90 -16 -103 -28 -19 -17 -25 -59 -11 -81 4 -6 321 -170
705 -363 655 -330 701 -352 740 -347 23 3 278 49 567 102 289 53 655 118 814
145 l289 49 66 -40 c79 -48 132 -63 189 -55 59 8 98 30 162 91 53 51 58 53
125 60 219 22 1463 183 1508 196 43 11 63 43 53 83 -5 21 -26 35 -109 74
l-102 49 -49 124 c-27 68 -54 130 -60 136 -6 7 -169 53 -361 103 -192 50 -351
93 -353 95 -21 21 415 167 661 220 70 16 126 30 124 32 -9 8 -1622 543 -1636
542 -9 0 -61 -19 -116 -43z m732 -274 c323 -110 594 -201 602 -204 8 -2 -32
-19 -90 -37 -145 -46 -333 -122 -469 -190 -225 -113 -352 -203 -486 -344 -92
-97 -140 -167 -178 -261 l-23 -56 -103 66 c-240 152 -581 335 -795 425 -44 18
-82 35 -84 36 -7 5 17 52 57 112 136 206 439 422 837 597 66 29 125 53 132 54
6 0 276 -89 600 -198z m-3022 -332 c317 -21 654 -89 954 -192 132 -45 595
-237 589 -243 -2 -2 -28 1 -58 6 -228 36 -602 55 -804 41 l-139 -11 -451 186
c-248 102 -462 190 -476 196 -22 10 -15 12 55 17 135 10 165 10 330 0z m3326
-284 c112 -30 197 -56 189 -59 -8 -3 -55 -10 -105 -17 -201 -26 -460 -96 -611
-165 -76 -35 -203 -112 -241 -148 -35 -32 -27 -11 21 57 83 116 215 228 396
338 72 44 101 57 121 52 14 -3 118 -29 230 -58z m-3113 -105 l319 -129 94 10
c210 22 648 -3 926 -52 119 -21 329 -81 372 -106 l26 -15 -25 5 c-156 31 -568
40 -795 17 -157 -16 -355 -45 -480 -71 -55 -11 -109 -20 -119 -20 -26 0 -1066
432 -1061 441 7 10 119 39 188 49 34 5 101 7 149 5 85 -5 97 -9 406 -134z
m-501 -150 c170 -71 420 -176 557 -234 l248 -104 57 13 c93 22 337 62 491 80
205 26 682 26 825 1 107 -19 255 -55 267 -66 4 -4 -32 -3 -80 2 -269 25 -806
-46 -1349 -179 l-192 -47 -568 264 -568 264 -3 68 c-2 37 -1 67 2 67 3 0 144
-58 313 -129z m4211 21 c18 -43 32 -81 32 -84 0 -3 -78 -8 -172 -12 -473 -19
-852 -88 -1062 -193 -61 -30 -72 -33 -98 -22 -35 14 -35 22 0 54 109 104 331
203 582 258 190 42 433 72 616 76 l70 1 32 -78z m-4213 -300 c143 -66 386
-179 539 -251 l280 -132 225 55 c388 95 727 153 1015 176 136 11 232 13 225 6
-3 -3 -88 -19 -189 -36 -157 -26 -571 -103 -1171 -217 l-135 -26 -560 283
c-699 354 -736 377 -229 142z m4185 82 c-17 -4 -623 -84 -820 -109 -69 -8
-141 -17 -160 -20 -73 -11 -1 15 122 44 170 41 305 60 603 84 55 5 274 6 255
1z m-1381 -171 c28 -9 51 -20 51 -25 0 -5 -20 -28 -44 -53 -60 -60 -102 -68
-171 -31 -102 54 -104 63 -21 102 60 28 114 30 185 7z"/>
</g>
</svg>
